<svg id="Layer_1" data-name="Layer 1" xmlns="http://www.w3.org/2000/svg" viewBox="0 0 250 75"><defs><style>.cls-1{fill:#231f20;}.cls-2{fill:#fff;}</style></defs><path class="cls-1" d="M239.19,48.78a4.93,4.93,0,0,0,2.6-.67c2.91-1.54,4.53-3.69,4.58-6.84a16.74,16.74,0,0,0,0-2.16,16.09,16.09,0,0,0-5.49-10,18.09,18.09,0,0,0-11-4.91,19.89,19.89,0,0,0-11.6,2.2,18.92,18.92,0,0,0-6.84,6.3,19.52,19.52,0,0,0-2.88,13.22A18.82,18.82,0,0,0,211,53.45a19,19,0,0,0,7.25,7A19.8,19.8,0,0,0,228,62.81c4,0,8.05,0,12.07,0a4.33,4.33,0,0,0,2.49-.57,5.47,5.47,0,0,0,2.67-5.74,5.1,5.1,0,0,0-4.45-4,17.55,17.55,0,0,0-2.29-.05c-3.31,0-6.61,0-9.92,0a11.64,11.64,0,0,1-3.06-.35,7.81,7.81,0,0,1-4.74-3.3C227,48.76,233.08,48.75,239.19,48.78Zm-18-10.48c-.35,0-.24-.26-.11-.45a8.36,8.36,0,0,1,13.55.08.23.23,0,0,1-.22.37C230,38.26,225.66,38.3,221.21,38.3Z"/><path class="cls-2" d="M218.15,45.25h18.68a19.15,19.15,0,0,0,2.82-.13c2.88-.55,3.95-3.08,3.19-6.06a14.88,14.88,0,0,0-6.05-8.69,15.76,15.76,0,0,0-12.71-2.48,14.92,14.92,0,0,0-10.86,8.52,15.79,15.79,0,0,0-1.29,9.8,15.12,15.12,0,0,0,5.49,9.48,15.84,15.84,0,0,0,10,3.59c4.23.09,8.46,0,12.69,0a1.53,1.53,0,0,0,1.76-1.75c0-1.23-.6-1.88-1.77-1.88H233.3a60.8,60.8,0,0,1-8.41-.31,12.26,12.26,0,0,1-8.2-6.14,5.17,5.17,0,0,1-.49-2.11,1.9,1.9,0,0,1,.6-1.31A2.16,2.16,0,0,1,218.15,45.25ZM221,37.82a8.34,8.34,0,0,1,13.54.09c.1.13.05.36-.22.36-4.4,0-8.76,0-13.21,0C220.77,38.27,220.88,38,221,37.82Z"/><path class="cls-1" d="M164.77,59.25A95.6,95.6,0,0,1,159.32,48c-2.13-4.68-4.51-9.24-6.36-14-.68-1.74-2-3.91-2.2-5.45a2.75,2.75,0,0,1,.17-1.45,5.41,5.41,0,0,1,4.86-3.19,5.84,5.84,0,0,1,5.72,3.66c1.17,2.67,2.41,5.3,3.63,8q3,6.48,6,12.94c.11.24.28.67.55.67s.43-.41.55-.65c2.86-5.81,3.05-6.95,4.65-10.39,1.43-3.08,4.16-9.17,4.28-9.45s.39-.9.65-1.43a5.8,5.8,0,0,1,5.88-3.29c2.22.19,4.61,1.86,4.89,4.17a4.14,4.14,0,0,1-.47,2.26c-2,4.87-4.35,9.54-6.53,14.31-1.88,4.11-6.46,14.23-7,14.92A6.91,6.91,0,0,1,172.1,63C168.32,63,166.08,61.42,164.77,59.25Z"/><path class="cls-1" d="M4.41,29.9V28.22a5.05,5.05,0,0,1,10,1.06c-.22,5-.18,10,0,15a8.05,8.05,0,0,0,4.38,7.18,7.2,7.2,0,0,0,8.13-.86,9.1,9.1,0,0,0,3.31-7.38c0-4.27,0-8.54,0-12.81a8,8,0,0,1,.29-3.32,5.11,5.11,0,0,1,5.89-3,5.06,5.06,0,0,1,3.81,5.37,11.12,11.12,0,0,0-.06,1.16c0,4.4-.1,8.81,0,13.22A8.21,8.21,0,0,0,45,51.63a7.41,7.41,0,0,0,9.29-2.51A9.56,9.56,0,0,0,56,43.38c0-4.3,0-8.6,0-12.9a8.08,8.08,0,0,1,.25-3.24A5,5,0,0,1,66,29.57c0,.36,0,.72,0,1.08,0,4.4,0,8.81,0,13.22a19.45,19.45,0,0,1-3.68,11.71,16.31,16.31,0,0,1-9.61,6.65,17.64,17.64,0,0,1-12.85-1.54,14.94,14.94,0,0,1-4.1-3.28c-.38-.45-.63-.43-1,0A15.06,15.06,0,0,1,27.47,62a18,18,0,0,1-6.79.67A18.1,18.1,0,0,1,15,61.29a17.1,17.1,0,0,1-7.6-6.78,19.34,19.34,0,0,1-2.66-7.25,34.24,34.24,0,0,1-.31-5.63C4.42,37.72,4.42,33.81,4.41,29.9Z"/><path class="cls-1" d="M206.29,43.37c0,4.9,0,9.81,0,14.71a5.31,5.31,0,1,1-10.62,0c0-9.12,0-18.23,0-27.35a13.28,13.28,0,0,1,.1-3.21,5.27,5.27,0,0,1,5.39-4.08,5.36,5.36,0,0,1,5.05,4.33,10.93,10.93,0,0,1,0,1.9V43.37Z"/><path class="cls-1" d="M195.2,17.33A5.79,5.79,0,1,1,201,23.11,5.8,5.8,0,0,1,195.2,17.33Z"/><path class="cls-2" d="M171.67,59.33c-1.8-.07-3.4-.4-4.91-3.18-2.18-5.1-3.62-7.8-5.86-12.86-1.34-3-2.71-6.1-4.06-9.15-.83-1.88-1.21-2.82-2.07-4.69a2.11,2.11,0,0,1-.14-1.84,1.88,1.88,0,0,1,2-.67,2.24,2.24,0,0,1,1.61,1.47c.41,1.11,1.09,2.61,1.66,3.89q3,6.66,6,13.29c.9,2,1.79,4,2.73,6a3.42,3.42,0,0,0,3.7,2,3.21,3.21,0,0,0,2.48-2q5.1-11.65,10.16-23.33a2,2,0,0,1,1.83-1.34,1.84,1.84,0,0,1,1.8.78,1.5,1.5,0,0,1,.18,1.48l-2.21,5q-2.37,5.41-4.75,10.84c-1.1,2.5-4,9.39-5.2,11.62A4.85,4.85,0,0,1,171.67,59.33Z"/><path class="cls-2" d="M59.48,36.62V28.77a1.49,1.49,0,0,1,3,0c0,5.26.1,10.51,0,15.76a15.83,15.83,0,0,1-3.33,9.31,13.13,13.13,0,0,1-8.69,5.26,13.55,13.55,0,0,1-10.72-2.68c-2.31-1.77-2.63-2.42-3.48-3.07a1.53,1.53,0,0,0-2.05,0,15.21,15.21,0,0,0-1.73,1.5,14,14,0,0,1-16.66,2.86,14.34,14.34,0,0,1-6.53-7.35,18.81,18.81,0,0,1-1.34-7.75c0-4.6,0-9.2,0-13.8a1.36,1.36,0,0,1,1.49-1.46,1.36,1.36,0,0,1,1.49,1.46q0,7.34,0,14.68a12.44,12.44,0,0,0,4.51,10A10.42,10.42,0,0,0,21,55.72a10.48,10.48,0,0,0,6-1,11.61,11.61,0,0,0,6.3-8.13,13.06,13.06,0,0,0,.35-3.06c0-4.9,0-9.8,0-14.71a1.49,1.49,0,1,1,3,0q0,7.29,0,14.6a12.45,12.45,0,0,0,4.51,10,10.19,10.19,0,0,0,5.49,2.26,11.79,11.79,0,0,0,5.91-.8,10.42,10.42,0,0,0,4.74-4,12.39,12.39,0,0,0,2.17-7.28C59.47,41.3,59.48,39,59.48,36.62Z"/><path class="cls-2" d="M199.17,43.36q0-6.37,0-12.73c0-2.67,0-3.05.69-3.55A1.89,1.89,0,0,1,202,27a1.58,1.58,0,0,1,.86,1.55c0,8.62,0,17.24,0,25.86,0,1.29,0,2.58,0,3.86a1.7,1.7,0,0,1-1.87,1.9,1.92,1.92,0,0,1-1.94-2c.05-1,.18-1.91.17-2.88C199.16,51.29,199.17,47.32,199.17,43.36Z"/><path class="cls-2" d="M203.46,17.32A2.48,2.48,0,1,1,201,14.84,2.49,2.49,0,0,1,203.46,17.32Z"/><path class="cls-1" d="M239.14,38.51a11.33,11.33,0,0,0-3.91-5,12,12,0,0,0-10.32-2.16,11.81,11.81,0,0,0-7.65,5.47c-1.22,1.93-1,3-.45,4a2.17,2.17,0,0,0,1.67.88c3.08,0,6.17,0,9.25,0,2.53,0,5.07,0,7.59,0,1.92,0,3-.2,3.68-1.57A2.49,2.49,0,0,0,239.14,38.51Zm-4.7-.23c-4.4,0-8.77,0-13.22,0-.35,0-.25-.26-.11-.46a8.36,8.36,0,0,1,13.55.09A.23.23,0,0,1,234.44,38.28Z"/><path class="cls-1" d="M128.07,30.91a12,12,0,0,0-12.46,12,12.43,12.43,0,1,0,12.46-12Zm8.88,13a8.94,8.94,0,0,1-17.84-.73,8.56,8.56,0,0,1,8.94-8.76A8.71,8.71,0,0,1,137,43.87Z"/><path class="cls-1" d="M147.35,48.36c0-3,0-6,0-8.92a14.53,14.53,0,0,0-1-3.82,17.73,17.73,0,0,0-5.82-7.69,18.24,18.24,0,0,0-10.38-4.09,20.35,20.35,0,0,0-8.52.87,17.87,17.87,0,0,0-5.66,3.13,19.18,19.18,0,0,0-5.29,6.49A20.61,20.61,0,0,0,109,46.53a18.18,18.18,0,0,0,4.57,9.65,17.74,17.74,0,0,0,8.32,5.35,20.88,20.88,0,0,0,8,.83,20,20,0,0,0,6.48-1.69.92.92,0,0,1,1.24.19,5.8,5.8,0,0,0,9.18-1.54,5.18,5.18,0,0,0,.61-2.62C147.33,53.92,147.35,51.14,147.35,48.36ZM128,52.12a8.8,8.8,0,0,1-8.92-9c.17-5.35,3.89-8.9,8.92-8.84a8.93,8.93,0,1,1,0,17.85Z"/><path class="cls-2" d="M143.91,48.88V40.79c0-.27,0-.26-.08-.81a11.71,11.71,0,0,0-1.64-4.55,16,16,0,0,0-4.06-4.72,15.82,15.82,0,0,0-12.52-3.28,15.09,15.09,0,0,0-10.08,5.81,15.74,15.74,0,0,0-3,13.41,14.79,14.79,0,0,0,5.15,8.6A16,16,0,0,0,127.85,59a14.55,14.55,0,0,0,6.36-1.25,7.54,7.54,0,0,1,2.35-.72,4.48,4.48,0,0,1,2.91,1.4,3,3,0,0,0,2.89.62,2.09,2.09,0,0,0,1.55-2.23ZM128,52.12a8.81,8.81,0,0,1-8.92-9c.17-5.36,3.89-8.9,8.92-8.84a8.71,8.71,0,0,1,9,8.84A8.8,8.8,0,0,1,128,52.12Z"/><path class="cls-1" d="M128.09,30.91a12,12,0,0,0-12.46,12,12.43,12.43,0,1,0,12.46-12Zm8.88,13a8.94,8.94,0,0,1-17.84-.73,8.56,8.56,0,0,1,8.94-8.76A8.71,8.71,0,0,1,137,43.87Z"/><path class="cls-1" d="M87.39,31.25a12,12,0,0,0-12.46,12,12.43,12.43,0,1,0,12.46-12Zm8.89,13a8.94,8.94,0,0,1-17.84-.73,8.56,8.56,0,0,1,8.93-8.76A8.71,8.71,0,0,1,96.28,44.21Z"/><path class="cls-1" d="M106.67,48.7c0-3,0-6,0-8.92A14.54,14.54,0,0,0,105.62,36a17.66,17.66,0,0,0-5.82-7.69,18.24,18.24,0,0,0-10.37-4.09,20.4,20.4,0,0,0-8.53.87,18,18,0,0,0-5.66,3.13A19.32,19.32,0,0,0,70,34.67a20.6,20.6,0,0,0-1.66,12.2,18.27,18.27,0,0,0,4.58,9.65,17.67,17.67,0,0,0,8.31,5.35,20.88,20.88,0,0,0,8,.83A20.07,20.07,0,0,0,95.66,61a.92.92,0,0,1,1.24.19,5.79,5.79,0,0,0,9.17-1.54,5.1,5.1,0,0,0,.61-2.62C106.65,54.26,106.67,51.48,106.67,48.7ZM87.33,52.46a8.81,8.81,0,0,1-8.92-9c.17-5.35,3.89-8.9,8.92-8.84a8.93,8.93,0,1,1,0,17.85Z"/><path class="cls-2" d="M103.23,49.22c0-2.7,0-5.4,0-8.1,0-.26,0-.25-.08-.8a11.55,11.55,0,0,0-1.64-4.55,16.19,16.19,0,0,0-16.58-8,15.12,15.12,0,0,0-10.07,5.82,15.71,15.71,0,0,0-3,13.41A14.82,14.82,0,0,0,77,55.59a15.88,15.88,0,0,0,10.14,3.73,14.45,14.45,0,0,0,6.36-1.24,7.38,7.38,0,0,1,2.35-.73,4.52,4.52,0,0,1,2.91,1.41,3,3,0,0,0,2.88.62,2.11,2.11,0,0,0,1.56-2.23C103.23,54.51,103.23,51.86,103.23,49.22ZM87.37,52.46a8.81,8.81,0,0,1-8.92-9c.17-5.35,3.88-8.89,8.92-8.83a8.71,8.71,0,0,1,9,8.83A8.8,8.8,0,0,1,87.37,52.46Z"/><path class="cls-1" d="M87.41,31.25A12,12,0,0,0,75,43.22a12.43,12.43,0,1,0,12.45-12Zm8.89,13a8.94,8.94,0,0,1-17.84-.73,8.56,8.56,0,0,1,8.93-8.76A8.71,8.71,0,0,1,96.3,44.21Z"/></svg>